<svg xmlns="http://www.w3.org/2000/svg" width="66" height="61" viewBox="0 0 66 61">
    <g fill="#FFF" fill-rule="evenodd">
        <path d="M30.075 2.937a6.565 6.565 0 0 1-2.388 4.07c.32-1.183.49-2.476.49-3.812v-.851h1.387a.518.518 0 0 1 .51.593zm-7.575 8.64c-1.225 0-2.395-.84-3.294-2.364-.944-1.6-1.464-3.737-1.464-6.018V.981c0-.03.025-.055.055-.055h9.406c.03 0 .055.025.055.055v2.214c0 2.28-.52 4.418-1.464 6.018-.899 1.525-2.069 2.364-3.294 2.364zm1.326 2.89h-2.604a3.059 3.059 0 0 0 .784-1.998 3.625 3.625 0 0 0 1.031-.006c.01.751.301 1.462.79 2.003zm-3.81 2.586h5.011v-1.661h-5.01v1.66zm7.242 1.388v.633h-9.472v-.633c0-.255.206-.463.46-.463h8.553c.253 0 .46.208.46.463zM14.925 2.937a.518.518 0 0 1 .51-.593h1.388v.851c0 1.336.17 2.63.49 3.812a6.564 6.564 0 0 1-2.388-4.07zM30.66 1.93a1.432 1.432 0 0 0-1.096-.51h-1.387V.98A.979.979 0 0 0 27.203 0h-9.406a.978.978 0 0 0-.974.98v.438h-1.387a1.437 1.437 0 0 0-1.417 1.668 7.487 7.487 0 0 0 3.776 5.346c.183.443.39.863.62 1.254.738 1.249 1.654 2.112 2.662 2.53a2.113 2.113 0 0 1-1.62 2.261l-.007.002a.462.462 0 0 0-.352.45v2.123h-.853c-.76 0-1.378.623-1.378 1.39v1.095c0 .256.206.463.46.463h10.39c.254 0 .46-.207.46-.463v-1.096c0-.766-.618-1.389-1.378-1.389h-.853V14.93a.462.462 0 0 0-.353-.45l-.006-.002a2.11 2.11 0 0 1-1.619-2.28c.99-.425 1.89-1.28 2.616-2.511.231-.391.438-.81.621-1.254a7.487 7.487 0 0 0 3.777-5.346 1.437 1.437 0 0 0-.322-1.157z"/>
        <path d="M23.26 5.768a.437.437 0 0 0-.117.377l.107.65-.56-.307a.394.394 0 0 0-.38 0l-.56.308.107-.65a.437.437 0 0 0-.118-.378l-.453-.46.626-.095a.41.41 0 0 0 .308-.233l.28-.592.28.592a.41.41 0 0 0 .308.233l.626.095-.453.46zm1.39-1.18l-1.232-.186-.552-1.165A.407.407 0 0 0 22.5 3a.407.407 0 0 0-.366.237l-.552 1.165-1.232.187a.414.414 0 0 0-.33.29.439.439 0 0 0 .103.436l.892.907-.21 1.28a.434.434 0 0 0 .162.417.395.395 0 0 0 .43.032l1.103-.604 1.103.604a.395.395 0 0 0 .43-.032.434.434 0 0 0 .162-.417l-.21-1.28.892-.907a.439.439 0 0 0 .103-.436.414.414 0 0 0-.33-.29zM38 6h28M65.555 7h-28.11C37.199 7 37 6.776 37 6.5s.2-.5.445-.5h28.11c.246 0 .445.224.445.5s-.2.5-.445.5M38 14h21M58.54 14H37.46c-.254 0-.46-.224-.46-.5s.206-.5.46-.5h21.08c.254 0 .46.224.46.5s-.206.5-.46.5M2.491 14.136V9.283c-.94.693-1.572 1.04-1.897 1.04a.57.57 0 0 1-.414-.179.565.565 0 0 1-.18-.413c0-.182.06-.315.178-.4A3.98 3.98 0 0 1 .804 9c.448-.203.806-.416 1.074-.64.268-.224.506-.475.713-.752.207-.277.342-.448.405-.512S3.177 7 3.35 7c.196 0 .353.073.471.219.119.145.178.346.178.602v6.107C4 14.643 3.747 15 3.24 15a.71.71 0 0 1-.544-.219c-.137-.145-.205-.36-.205-.645M8.01 15c-.275 0-.512-.089-.711-.266-.2-.177-.299-.425-.299-.744 0-.27.095-.503.286-.698A.946.946 0 0 1 7.99 13c.28 0 .517.096.714.289A.944.944 0 0 1 9 13.99c0 .315-.099.562-.296.74a.998.998 0 0 1-.694.27M38 29h28M65.555 30h-28.11c-.246 0-.445-.224-.445-.5s.2-.5.445-.5h28.11c.246 0 .445.224.445.5s-.2.5-.445.5M38 36h21M58.54 37H37.46c-.254 0-.46-.224-.46-.5s.206-.5.46-.5h21.08c.254 0 .46.224.46.5s-.206.5-.46.5M2.676 35.72H5.22c.254 0 .447.058.58.174.133.115.2.273.2.471a.667.667 0 0 1-.158.45c-.106.124-.266.185-.48.185H1.775c-.244 0-.434-.075-.57-.225A.76.76 0 0 1 1 36.246c0-.13.044-.303.132-.518.087-.215.183-.384.287-.507a29.53 29.53 0 0 1 1.17-1.283c.347-.356.596-.59.745-.702.267-.21.488-.42.665-.632a2.54 2.54 0 0 0 .405-.65c.093-.223.139-.441.139-.654 0-.232-.05-.439-.149-.621a1.087 1.087 0 0 0-.962-.578c-.426 0-.76.208-1.004.624a2.87 2.87 0 0 0-.163.444 1.936 1.936 0 0 1-.259.56.49.49 0 0 1-.421.194.52.52 0 0 1-.405-.179c-.107-.119-.16-.282-.16-.488 0-.25.05-.51.15-.78a2.22 2.22 0 0 1 1.21-1.272A2.655 2.655 0 0 1 3.463 29c.497 0 .921.087 1.272.26.227.116.427.275.6.478.172.202.306.436.401.702.096.266.144.541.144.827 0 .449-.1.856-.3 1.223-.2.367-.403.655-.611.863-.208.208-.557.534-1.045.979-.49.444-.825.79-1.007 1.035a3.091 3.091 0 0 0-.239.353M9.01 37c-.275 0-.512-.089-.711-.266-.2-.177-.299-.425-.299-.744 0-.27.095-.503.286-.698A.946.946 0 0 1 8.99 35c.28 0 .517.096.714.289a.944.944 0 0 1 .296.701c0 .315-.099.562-.296.74a.998.998 0 0 1-.694.27M26.243 37.33a2.79 2.79 0 0 0 2.298-1.222l1.957 2.978-2.313-.434a.485.485 0 0 0-.559.364l-.521 2.289-2.223-3.383c.297-.32.915-.592 1.36-.592zm-9.106-4.725a1.791 1.791 0 0 1-.528-1.277c0-.482.188-.935.528-1.274a2.743 2.743 0 0 0 .814-1.955c0-.994.811-1.803 1.809-1.803.74 0 1.435-.289 1.96-.812.343-.342.798-.53 1.281-.53.483 0 .938.188 1.281.53.525.523 1.221.812 1.96.812.998 0 1.81.809 1.81 1.803 0 .738.289 1.432.813 1.955.34.34.528.793.528 1.278 0 .481-.187.934-.528 1.273a2.742 2.742 0 0 0-.813 1.955c0 .994-.812 1.804-1.81 1.804-.739 0-1.435.288-1.96.81-.343.343-.798.531-1.28.531-.484 0-.94-.188-1.282-.53a2.758 2.758 0 0 0-1.96-.811c-.998 0-1.81-.81-1.81-1.804 0-.738-.288-1.432-.813-1.955zm.325 3.503a2.756 2.756 0 0 0 2.298 1.222c.51 0 .966.2 1.355.594l-2.217 3.377-.522-2.285a.48.48 0 0 0-.47-.373c-.01 0-.03 0-2.402.443l1.958-2.978zm14.467 3.399l-2.955-4.492c.026-.154.039-.307.039-.455 0-.48.187-.935.528-1.278a2.743 2.743 0 0 0 .813-1.954c0-.738-.289-1.432-.813-1.955a1.79 1.79 0 0 1-.528-1.277 2.771 2.771 0 0 0-2.774-2.762c-.483 0-.938-.189-1.281-.53A2.765 2.765 0 0 0 23 24c-.74 0-1.436.288-1.96.811-.343.342-.798.53-1.281.53a2.771 2.771 0 0 0-2.774 2.762c0 .482-.189.936-.532 1.278a2.742 2.742 0 0 0-.813 1.954c0 .738.289 1.432.813 1.955.343.342.532.796.532 1.278 0 .147.013.3.038.455l-2.95 4.486-.006.008c-.14.284-.032.474.045.563.118.135.317.206.455.164l2.965-.557.674 2.945c.07.216.223.35.423.365.185.014.378-.08.45-.219l2.84-4.322a2.81 2.81 0 0 0 2.153 0l2.843 4.326.005.006c.139.17.285.212.396.212a.446.446 0 0 0 .111-.014c.178-.046.333-.203.361-.36l.673-2.94 2.965.558c.158.04.358-.04.475-.19.12-.156.13-.355.027-.547z"/>
        <path d="M22.468 36l.123-.001a.417.417 0 0 0 .409-.43.427.427 0 0 0-.427-.41h-.004A3.576 3.576 0 0 1 19.9 34.1a3.603 3.603 0 0 1-1.06-2.669.421.421 0 0 0-.416-.43c-.2.012-.418.179-.423.408a4.435 4.435 0 0 0 1.306 3.285A4.439 4.439 0 0 0 22.468 36M22.436 27.806a3.397 3.397 0 0 1 2.783.976 3.39 3.39 0 0 1 .975 2.782.39.39 0 0 0 .347.434l.043.002c.2 0 .369-.15.39-.35a4.172 4.172 0 0 0-1.2-3.424 4.18 4.18 0 0 0-3.424-1.2.394.394 0 0 0-.348.433.39.39 0 0 0 .434.347M38 53h28M65.555 52h-28.11c-.246 0-.445-.224-.445-.5s.2-.5.445-.5h28.11c.246 0 .445.224.445.5s-.2.5-.445.5M58.54 59H37.46c-.254 0-.46-.224-.46-.5s.206-.5.46-.5h21.08c.254 0 .46.224.46.5s-.206.5-.46.5M3.251 53.14c.3 0 .557-.096.774-.288.216-.192.325-.468.325-.828 0-.274-.087-.51-.26-.708-.172-.197-.404-.296-.697-.296-.199 0-.363.03-.491.09a.797.797 0 0 0-.305.241c-.075.1-.146.228-.213.385-.066.156-.128.304-.183.443a.358.358 0 0 1-.176.176.641.641 0 0 1-.293.064.487.487 0 0 1-.358-.173.646.646 0 0 1-.164-.462c0-.185.051-.38.154-.585.102-.205.252-.4.449-.585.197-.185.442-.334.735-.446.293-.112.62-.168.981-.168.316 0 .604.047.865.142.26.094.486.23.678.408.192.178.337.385.435.62.098.235.146.487.146.758 0 .356-.07.661-.212.916a3.02 3.02 0 0 1-.608.745c.254.15.468.32.642.512.174.193.305.405.393.639.088.233.132.485.132.755 0 .324-.06.638-.178.94a2.41 2.41 0 0 1-.525.81 2.48 2.48 0 0 1-.823.555 2.69 2.69 0 0 1-1.052.2c-.39 0-.74-.077-1.05-.23a2.424 2.424 0 0 1-.764-.574 2.63 2.63 0 0 1-.454-.713C1.05 56.238 1 56.035 1 55.874c0-.206.061-.372.183-.499a.609.609 0 0 1 .457-.19c.09 0 .179.03.263.089a.41.41 0 0 1 .166.21c.17.496.351.863.545 1.103.193.24.466.36.818.36.201 0 .396-.053.583-.162.187-.109.342-.27.464-.483.122-.214.183-.461.183-.743 0-.416-.104-.743-.312-.98-.209-.236-.498-.355-.87-.355-.065 0-.166.007-.302.022a3.378 3.378 0 0 1-.264.021c-.179 0-.317-.049-.415-.147-.098-.098-.146-.234-.146-.408a.53.53 0 0 1 .175-.414c.118-.105.292-.158.523-.158h.2zM9.01 58c-.275 0-.512-.089-.711-.266-.2-.177-.299-.425-.299-.744 0-.27.095-.503.286-.698A.946.946 0 0 1 8.99 56c.28 0 .517.096.714.289a.944.944 0 0 1 .296.701c0 .315-.099.562-.296.74a.998.998 0 0 1-.694.27M22.5 57.369c.088 0 .175.02.255.062l3.93 2.038-.75-4.316a.537.537 0 0 1 .157-.48l3.18-3.056-4.394-.63a.549.549 0 0 1-.413-.296L22.5 46.765l-1.965 3.926a.549.549 0 0 1-.413.297l-4.393.63 3.179 3.056c.13.124.188.303.158.48l-.75 4.315 3.928-2.038a.555.555 0 0 1 .256-.062M27.414 61a.554.554 0 0 1-.256-.062L22.5 58.522l-4.658 2.416a.555.555 0 0 1-.579-.041.538.538 0 0 1-.218-.53l.89-5.116-3.77-3.624a.536.536 0 0 1-.138-.555.547.547 0 0 1 .443-.369l5.208-.746 2.33-4.655A.55.55 0 0 1 22.5 45c.209 0 .4.117.492.302l2.33 4.655 5.208.746c.207.03.379.173.443.369a.536.536 0 0 1-.139.555l-3.769 3.624.89 5.116a.538.538 0 0 1-.218.53.553.553 0 0 1-.323.103"/>
    </g>
</svg>
