<svg xmlns="http://www.w3.org/2000/svg" width="78" height="77" viewBox="0 0 78 77">
    <g fill="none" fill-rule="evenodd">
        <path fill="#BCDEFE" d="M6.511 71.489h65.978V5.511H6.511v65.978zm-2.604 2.604h71.186V2.907H3.907v71.186z"/>
        <path fill="#6A99E7" d="M1.01 8h7.992V0H1.01zM69.582 8h8V0h-8zM.01 76.582h7.992v-8H.01zM69.262 76.262h8v-8h-8zM42.42 27.5l17.969-9.055v18.11L42.419 27.5zm-2.92 1.471l16.664 8.397H22.836L39.5 28.971zm-16.664-11.34h33.328L39.5 26.03l-16.664-8.397zM36.581 27.5l-17.97 9.055v-18.11l17.97 9.055zM61.695 15h-44.39A1.31 1.31 0 0 0 16 16.316v22.368A1.31 1.31 0 0 0 17.305 40h44.39A1.31 1.31 0 0 0 63 38.684V16.316A1.31 1.31 0 0 0 61.695 15z"/>
        <path fill="#8DB7D9" d="M36.706 62H17.294C16.579 62 16 61.552 16 61s.58-1 1.294-1h19.412c.715 0 1.294.448 1.294 1s-.58 1-1.294 1M61.706 62H42.294C41.579 62 41 61.552 41 61s.58-1 1.294-1h19.412c.715 0 1.294.448 1.294 1s-.58 1-1.294 1M36.706 55H17.294C16.579 55 16 54.552 16 54s.58-1 1.294-1h19.412c.715 0 1.294.448 1.294 1s-.58 1-1.294 1M61.706 55H42.294C41.579 55 41 54.552 41 54s.58-1 1.294-1h19.412c.715 0 1.294.448 1.294 1s-.58 1-1.294 1M36.706 50H17.294C16.579 50 16 49.552 16 49s.58-1 1.294-1h19.412c.715 0 1.294.448 1.294 1s-.58 1-1.294 1M61.706 50H42.294C41.579 50 41 49.552 41 49s.58-1 1.294-1h19.412c.715 0 1.294.448 1.294 1s-.58 1-1.294 1M61.695 45h-44.39c-.72 0-1.305-.448-1.305-1s.585-1 1.305-1h44.39c.72 0 1.305.448 1.305 1s-.585 1-1.305 1"/>
    </g>
</svg>
