<svg xmlns="http://www.w3.org/2000/svg" width="102" height="102" viewBox="0 0 102 102">
    <g fill="none" fill-rule="evenodd" transform="translate(1 1)">
        <circle cx="50" cy="50" r="50" stroke="#6A99E7" stroke-width="2"/>
        <g fill="#6A99E7">
            <path d="M65.945 62.6h-33.89c-.583 0-1.055.537-1.055 1.2 0 .663.472 1.2 1.055 1.2h33.89c.583 0 1.055-.537 1.055-1.2 0-.663-.472-1.2-1.055-1.2M33.4 53.3V61h8.8v-7.7c0-.608-.484-1.1-1.082-1.1h-6.636a1.09 1.09 0 0 0-1.082 1.1M44.921 46.095c-.58 0-1.051.474-1.051 1.06v13.774h8.41V47.155c0-.586-.47-1.06-1.05-1.06H44.92"/>
            <path d="M62.794 60.93V39.595h3.154c.425 0 .81-.257.972-.654a1.064 1.064 0 0 0-.228-1.155l-7.36-8.476a1.045 1.045 0 0 0-1.486 0l-7.36 8.476c-.3.304-.391.759-.228 1.155.162.396.546.654.971.654h3.154V60.93h8.411"/>
        </g>
    </g>
</svg>
