<svg xmlns="http://www.w3.org/2000/svg" width="102" height="102" viewBox="0 0 102 102">
    <g fill="none" fill-rule="evenodd" transform="translate(1 1)">
        <circle cx="50" cy="50" r="50" stroke="#6A99E7" stroke-width="2"/>
        <g fill="#6A99E7">
            <path d="M40.299 57.907l.02-.05c.359-.793 1.012-1.397 1.944-1.796l2.953-1.392.157-.135a9.28 9.28 0 0 1-.33-.408c-1.335-1.775-2.068-4.133-2.13-6.825l-.409-.19-1.522-1.316-2.446 1.49h-.285l-2.446-1.49-1.522 1.315-3.987 1.493c-.469.198-.93.496-1.165 1.015 0 0-3.444 8.39-1.575 8.39h12.701l.042-.1zM32.227 36.723c.057 5.161 2.967 8.236 5.877 8.236 2.486 0 5.82-3.075 5.877-8.236.036-3.58-1.685-5.723-5.877-5.723-4.193 0-5.914 2.143-5.877 5.723zM72.263 49.508c-.207-.496-.704-.815-1.178-1.012l-4.027-1.49-1.54-1.312-2.477 1.485h-.288l-2.477-1.485-1.54 1.312-.415.192c-.067 2.61-.891 5.03-2.335 6.836-.082.102-.165.201-.25.298l.254.216 2.99 1.388c.97.41 1.658 1.046 1.99 1.846l.04.097H73.86c1.891 0-1.596-8.37-1.596-8.37zM57.207 36.723c.056 5.161 2.967 8.236 5.877 8.236 2.485 0 5.82-3.075 5.876-8.236.037-3.58-1.685-5.723-5.876-5.723-4.193 0-5.915 2.143-5.877 5.723zM58.18 57.38l-3.302-1.527-1.587-1.343-2.55 1.546h-.296l-2.549-1.546-1.586 1.343-3.303 1.527c-.489.2-.968.506-1.213 1.039 0 0-3.59 8.581-1.642 8.581h20.884c1.946 0-1.643-8.581-1.643-8.581-.213-.512-.725-.84-1.214-1.04zM50.594 39.816c-4.193 0-5.914 2.142-5.877 5.723.057 5.159 2.968 8.237 5.877 8.237 2.485 0 5.82-3.078 5.877-8.237.036-3.58-1.686-5.723-5.877-5.723z"/>
        </g>
    </g>
</svg>
