<svg xmlns="http://www.w3.org/2000/svg" width="83" height="83" viewBox="0 0 83 83">
    <g fill="none" fill-rule="evenodd">
        <path fill="#6A99E7" d="M40 34.923h3v-8.901h-3z"/>
        <path fill="#BCDEFE" d="M12.267 73.374h58.571V36.43h-58.57v36.944zm58.571 3.405h-58.57c-1.901 0-3.456-1.532-3.456-3.405V36.43c0-1.873 1.555-3.405 3.455-3.405h58.571c1.9 0 3.456 1.532 3.456 3.405v36.944c0 1.872-1.555 3.405-3.456 3.405z"/>
        <path fill="#BCDEFE" d="M3.628 78.992h75.503c-.518-1.192-1.727-2.213-3.282-2.213H6.739c-1.21 0-2.592.851-3.11 2.213zm79.304 3.405H0v-2.213c0-3.746 3.11-6.81 6.911-6.81h69.11c3.801 0 6.911 3.064 6.911 6.81v2.213z"/>
        <path fill="#6A99E7" d="M41.5 66.4v-3.433c5.015 0 8.992-4.12 8.992-9.099 0-3.434-1.902-6.695-5.015-8.24l1.556-3.09c4.323 2.06 6.917 6.523 6.917 11.33 0 6.867-5.706 12.532-12.45 12.532M34.41 65.362c-3.285-2.402-5.36-6.178-5.36-10.296 0-6.865 5.533-12.529 12.45-12.529v3.433c-5.015 0-8.992 4.119-8.992 9.096 0 3.089 1.384 5.834 3.805 7.55l-1.903 2.746"/>
        <path fill="#6A99E7" d="M41.561 48.763l-2.93-2.014 2.93-3.86-4.211-2.854 2.38-2.685 6.958 4.867-5.127 6.546M45.502 70.55l-8.152-5.336 5.743-7.114 2.965 1.779-3.52 4.689 5.187 3.395-2.223 2.587M25.386 11.097c-3.447 0-6.377 2.732-6.377 6.317s2.758 6.317 6.377 6.317h31.539c3.791 0 6.893-3.073 6.893-6.829s-3.102-6.829-6.893-6.829c-1.38 0-2.758.512-3.964 1.195l-1.896 1.366-.69-2.22a9.976 9.976 0 0 0-9.478-6.829c-4.481 0-8.617 3.073-9.824 7.342l-.517 2.22-1.895-1.196c-1.207-.512-2.24-.854-3.275-.854zm31.539 15.878H25.386c-5.343 0-9.823-4.268-9.823-9.732 0-5.292 4.308-9.731 9.823-9.731 1.034 0 2.068.17 3.102.512C30.556 3.244 35.382 0 40.897 0c5.17 0 9.65 2.902 12.064 7.17 1.206-.512 2.757-.853 4.136-.853 5.687 0 10.34 4.61 10.34 10.244 0 5.634-4.825 10.414-10.512 10.414z"/>
    </g>
</svg>
