<svg xmlns="http://www.w3.org/2000/svg" width="241" height="54" viewBox="0 0 241 54">
    <g fill="#FFF" fill-rule="nonzero">
        <path d="M57.832 19.637H23.976c-1.07 0-1.939.852-1.939 1.902v9.24c0 1.052.868 1.903 1.94 1.903H46.29v6.825H13.771V11H1.94C.868 11 0 11.852 0 12.902V41.41c0 1.05.868 1.902 1.939 1.902h4.938v-3.805h-3V14.805h6.016v36.63c0 1.051.868 1.903 1.939 1.903h36.397c1.071 0 1.94-.852 1.94-1.903V45.88H46.29v3.654H13.771v-6.22h44.062c1.07 0 1.939-.852 1.939-1.903V21.54c0-1.051-.869-1.903-1.94-1.903zm-1.939 19.87H50.17V30.78c0-1.05-.868-1.902-1.94-1.902H25.916v-5.436h29.978v16.065z"/>
        <path d="M13.878 3.805h30.796v7.429H16.956v3.805h29.657c1.071 0 1.939-.852 1.939-1.903V1.902C48.552.852 47.684 0 46.613 0H11.94C10.868 0 10 .852 10 1.902v6.221h3.878V3.805z"/>
        <g>
            <path d="M87.055 26.88h6.677v7.473c0 4.258-2.276 6.392-6.828 6.402-4.54 0-6.81-2.134-6.81-6.402V15.75c0-4.258 2.27-6.387 6.81-6.387 4.552 0 6.828 2.129 6.828 6.387v4.093h-4.747V15.75c0-1.364-.689-2.051-2.064-2.062h-.033c-1.365 0-2.047.687-2.047 2.062v18.603c0 1.374.688 2.061 2.064 2.061 1.386 0 2.08-.687 2.08-2.061V31.22h-1.93v-4.34zM111.256 16.82l-3.355 23.44h-4.782l4.899-30.416h6.51l4.881 30.415h-4.798zM139.466 30.679l5.52-20.836h4.747V40.26h-4.546V23.191l-4.06 17.068h-3.221l-4.177-17.068v17.068h-4.597V9.844h4.748zM161.05 9.844h4.747v30.415h-4.747zM177.114 9.844h6.912c4.216.01 6.325 2.144 6.325 6.402v9.55c0 3.142-1.516 5.168-4.547 6.077-.727.217-1.784.325-3.17.325h-.772v8.062h-4.748V9.844zm4.748 4.325v13.688h1.09c.66 0 1.113-.041 1.36-.124.861-.32 1.291-.966 1.291-1.938v-9.55c0-1.384-.687-2.076-2.063-2.076h-1.678zM200.745 9.844h4.747v18.029h4.144V9.843h4.748V40.26h-4.748v-8.045h-4.144v8.045h-4.747zM229.14 9.844l3.237 15.72 3.238-15.72h5.032L234.76 32.26v7.999h-4.747v-8l-5.905-22.415z"/>
        </g>
    </g>
</svg>
