<svg xmlns="http://www.w3.org/2000/svg" width="57" height="57" viewBox="0 0 57 57">
    <g fill="#FFF" fill-rule="evenodd">
        <path d="M20.618 17.285c.897 0 1.764-.242 2.516-.683v6.442h-8.422a.84.84 0 1 0-.476 1.536 3.237 3.237 0 0 1 1.42 2.676 3.248 3.248 0 0 1-3.25 3.239 3.248 3.248 0 0 1-3.25-3.239c0-1.07.53-2.07 1.419-2.676a.84.84 0 0 0-.477-1.536h-8.41V6.074 1.682h21.446v6.443a4.976 4.976 0 0 0-2.516-.683c-2.723 0-4.938 2.208-4.938 4.921 0 2.714 2.215 4.922 4.938 4.922m0-8.16c1.062 0 2.06.514 2.67 1.377a.846.846 0 0 0 1.535-.485V.841A.843.843 0 0 0 23.978 0H.844A.843.843 0 0 0 0 .841V23.885c0 .465.378.842.844.842H8.17a4.906 4.906 0 0 0-.702 2.529c0 2.714 2.215 4.921 4.938 4.921s4.939-2.207 4.939-4.921c0-.905-.25-1.776-.702-2.53h7.336a.843.843 0 0 0 .845-.84V14.71a.846.846 0 0 0-1.534-.485 3.271 3.271 0 0 1-2.671 1.377 3.248 3.248 0 0 1-3.25-3.239 3.248 3.248 0 0 1 3.25-3.238"/>
        <path d="M55.333 32.722H49.04a4.837 4.837 0 0 0 .662-2.44v-.019-.014a4.842 4.842 0 0 0-4.835-4.837 4.842 4.842 0 0 0-4.835 4.837v.034c0 .868.235 1.708.662 2.44H34.39v-8.215a.834.834 0 0 0-1.522-.471 3.157 3.157 0 0 1-2.605 1.384 3.172 3.172 0 0 1-3.168-3.17 3.172 3.172 0 0 1 3.168-3.168c1.04 0 2.013.517 2.605 1.383a.833.833 0 0 0 1.522-.47V11.78h20.943v20.941zm0 22.61H34.39v-6.297a4.86 4.86 0 0 0 2.45.664h.01a4.842 4.842 0 0 0 4.835-4.838 4.842 4.842 0 0 0-4.835-4.837H36.841a4.86 4.86 0 0 0-2.45.664V34.39h8.221a.834.834 0 0 0 .47-1.523 3.17 3.17 0 0 1-1.382-2.604 3.172 3.172 0 0 1 3.167-3.151 3.172 3.172 0 0 1 3.167 3.151 3.17 3.17 0 0 1-1.382 2.604.835.835 0 0 0 .47 1.523H55.333v20.94zM33.31 46.32a.834.834 0 0 0-.587.797v8.215H11.78V34.39h6.293a4.836 4.836 0 0 0-.662 2.44 4.842 4.842 0 0 0 4.835 4.837 4.842 4.842 0 0 0 4.835-4.837c0-.869-.235-1.71-.662-2.44h6.304V42.605a.834.834 0 0 0 1.522.47 3.157 3.157 0 0 1 2.6-1.383 3.172 3.172 0 0 1 3.163 3.17 3.172 3.172 0 0 1-3.162 3.168 3.158 3.158 0 0 1-2.601-1.384.833.833 0 0 0-.935-.326zm22.856-36.207h-22.61a.834.834 0 0 0-.833.834v7.146a4.8 4.8 0 0 0-2.46-.679 4.842 4.842 0 0 0-4.835 4.838 4.842 4.842 0 0 0 4.835 4.837c.878 0 1.725-.24 2.46-.678v6.311h-8.177a.834.834 0 0 0-.48 1.516 3.176 3.176 0 0 1 1.347 2.593A3.172 3.172 0 0 1 22.246 40a3.172 3.172 0 0 1-3.168-3.17c0-1.028.504-1.997 1.347-2.592a.834.834 0 0 0-.48-1.516h-8.998a.834.834 0 0 0-.834.834v22.61c0 .46.373.834.834.834h45.22c.46 0 .833-.373.833-.834V10.947a.834.834 0 0 0-.834-.834z"/>
    </g>
</svg>
