<svg xmlns="http://www.w3.org/2000/svg" width="61" height="61" viewBox="0 0 61 61">
    <g fill="#FFF" fill-rule="evenodd">
        <path d="M38.176 10.383a.932.932 0 0 0 .205 1.296l11.154 8.144a.92.92 0 0 0 1.29-.206.931.931 0 0 0-.206-1.296l-11.154-8.144a.92.92 0 0 0-1.289.206M22.977 14.133a.942.942 0 0 0-1.078-.79L8.008 15.567a.948.948 0 0 0-.783 1.086.944.944 0 0 0 1.078.789l13.892-2.222a.948.948 0 0 0 .782-1.086"/>
        <path d="M45.576 34.957a12.029 12.029 0 0 0-5.514-6.974v-4.95l5.12 3.747a.938.938 0 0 0 1.315-.21.954.954 0 0 0-.208-1.326l-6.227-4.557V19.23a.945.945 0 0 0-.942-.95h-2.347l-1.866-1.366a.937.937 0 0 0-1.316.21.955.955 0 0 0 .032 1.156h-5.985l1.49-2.07L39.13 2.33l19.613 14.353-13.166 18.275zm-4.33 10.717h-.001a10.126 10.126 0 0 1-2.554 1.873 9.936 9.936 0 0 1-4.595 1.11c-3.817 0-7.268-2.129-9.007-5.558-.732-1.442-1.102-3-1.102-4.63 0-.941.128-1.876.382-2.78a10.126 10.126 0 0 1 1.978-3.762 10.06 10.06 0 0 1 7.75-3.647c1.616 0 3.162.374 4.594 1.112a10.155 10.155 0 0 1 5.455 7.968v.002c.04.37.06.741.06 1.107 0 2.721-1.051 5.28-2.96 7.205zm-27.306 5.01V20.178H38.178V27.1a11.796 11.796 0 0 0-4.867-.692.939.939 0 0 0-.22-.027H19.027a.946.946 0 0 0-.942.95c0 .523.422.949.942.949h8.616a12.054 12.054 0 0 0-2.739 2.427 12.002 12.002 0 0 0-2.13 3.775h-3.747a.946.946 0 0 0-.942.949c0 .524.422.95.942.95h3.257a12.2 12.2 0 0 0-.18 2.088c0 1.424.24 2.802.712 4.113h-3.789a.946.946 0 0 0-.942.95c0 .524.422.949.942.949h4.665c2.139 3.762 6.073 6.076 10.405 6.076 1.414 0 2.781-.242 4.082-.718v.844H13.94zM2.02 10.243l23.938-3.83 1.417 9-2.065 2.866H12.998a.946.946 0 0 0-.942.95v3.89l-2.789.446a.948.948 0 0 0-.782 1.086.944.944 0 0 0 1.078.79l2.493-.4v6.28l-1.53.245a.948.948 0 0 0-.782 1.086.944.944 0 0 0 1.078.789l1.234-.197v6.28l-5.293.846L2.02 10.243zm44.965 39.693l7.193 7.25-1.51 1.521-7.193-7.25 1.51-1.52zM60.61 15.703L39.474.235a.935.935 0 0 0-1.316.21L28.94 13.24l-1.269-8.06a.95.95 0 0 0-.377-.62.937.937 0 0 0-.7-.17L.793 8.518a.948.948 0 0 0-.782 1.086L5.05 41.606a.95.95 0 0 0 .377.62.937.937 0 0 0 .701.169l5.928-.949v10.186c0 .525.422.95.942.95H39.12c.52 0 .942-.425.942-.95v-2.677a11.99 11.99 0 0 0 1.823-1.294l2.347 2.366-.755.76a.955.955 0 0 0 0 1.343l8.525 8.592a.935.935 0 0 0 1.332 0l2.842-2.864a.953.953 0 0 0 0-1.343l-8.525-8.592a.938.938 0 0 0-1.332 0l-.755.761-2.347-2.365a12.054 12.054 0 0 0 2.873-7.85c0-.312-.013-.627-.037-.942L60.82 17.03a.954.954 0 0 0-.209-1.326z"/>
        <path d="M34 44.11A6.117 6.117 0 0 1 27.89 38c0-3.37 2.74-6.11 6.11-6.11s6.11 2.74 6.11 6.11-2.74 6.11-6.11 6.11zM34 30c-4.411 0-8 3.589-8 8s3.589 8 8 8 8-3.589 8-8-3.589-8-8-8z"/>
        <path d="M35.537 38.251l-2.286 2.286a.857.857 0 1 0 1.212 1.212l2.286-2.286a.857.857 0 1 0-1.212-1.212M35.703 35.73a1.013 1.013 0 1 0-1.433-1.433l-2.973 2.973a1.013 1.013 0 1 0 1.433 1.433l2.973-2.973"/>
    </g>
</svg>
